<svg width="1280" height="720" xmlns="http://www.w3.org/2000/svg" xmlns:xlink="http://www.w3.org/1999/xlink" overflow="hidden"><g><rect x="0" y="0" width="1280" height="720" fill="#BFBFBF"/><g><g><g><path d="M770.03 603.855C770.03 605.9 768.372 607.557 766.328 607.557 764.284 607.557 762.626 605.9 762.626 603.855 762.626 601.811 764.284 600.153 766.328 600.153 768.372 600.153 770.03 601.811 770.03 603.855Z" fill="#D2D2D2"/><path d="M846.615 699.645C846.615 701.69 844.957 703.347 842.913 703.347 840.868 703.347 839.211 701.69 839.211 699.645 839.211 697.601 840.868 695.943 842.913 695.943 844.957 695.943 846.615 697.601 846.615 699.645Z" fill="#F2F2F2"/><path d="M840.366 657.533C840.366 659.578 838.709 661.235 836.665 661.235 834.62 661.235 832.963 659.578 832.963 657.533 832.963 655.489 834.62 653.832 836.665 653.832 838.709 653.832 840.366 655.489 840.366 657.533Z" fill="#D2D2D2"/><path d="M832.962 679.745C832.962 681.79 831.305 683.447 829.261 683.447 827.216 683.447 825.559 681.79 825.559 679.745 825.559 677.701 827.216 676.043 829.261 676.043 831.305 676.043 832.962 677.701 832.962 679.745Z" fill="#737373"/><path d="M795.943 683.447C795.943 685.491 794.286 687.149 792.242 687.149 790.197 687.149 788.54 685.491 788.54 683.447 788.54 681.402 790.197 679.745 792.242 679.745 794.286 679.745 795.943 681.402 795.943 683.447Z" fill="#737373"/><path d="M792.241 613.11C792.241 615.154 790.584 616.812 788.539 616.812 786.495 616.812 784.838 615.154 784.838 613.11 784.838 611.065 786.495 609.408 788.539 609.408 790.584 609.408 792.241 611.065 792.241 613.11Z" fill="#F2F2F2"/><path d="M788.573 626.678C788.573 628.723 786.916 630.38 784.871 630.38 782.827 630.38 781.169 628.723 781.169 626.678 781.169 624.634 782.827 622.977 784.871 622.977 786.916 622.977 788.573 624.634 788.573 626.678Z" fill="#737373"/><path d="M733.255 612.966C733.255 615.01 731.598 616.667 729.553 616.667 727.509 616.667 725.851 615.01 725.851 612.966 725.851 610.921 727.509 609.264 729.553 609.264 731.598 609.264 733.255 610.921 733.255 612.966Z" fill="#F2F2F2"/><path d="M769.503 621.645C769.503 623.69 767.846 625.347 765.801 625.347 763.757 625.347 762.099 623.69 762.099 621.645 762.099 619.601 763.757 617.944 765.801 617.944 767.846 617.944 769.503 619.601 769.503 621.645Z" fill="#505050"/><path d="M815.877 622.677C815.877 624.721 814.22 626.378 812.175 626.378 810.131 626.378 808.473 624.721 808.473 622.677 808.473 620.632 810.131 618.975 812.175 618.975 814.22 618.975 815.877 620.632 815.877 622.677Z" fill="#F2F2F2"/><path d="M832.143 639.516C832.143 641.561 830.486 643.218 828.441 643.218 826.397 643.218 824.74 641.561 824.74 639.516 824.74 637.472 826.397 635.815 828.441 635.815 830.486 635.815 832.143 637.472 832.143 639.516Z" fill="#505050"/><path d="M818.298 674.048C818.298 676.093 816.641 677.75 814.596 677.75 812.552 677.75 810.895 676.093 810.895 674.048 810.895 672.004 812.552 670.346 814.596 670.346 816.641 670.346 818.298 672.004 818.298 674.048Z" fill="#F2F2F2"/><path d="M754.229 644.79C754.229 646.834 752.571 648.491 750.527 648.491 748.483 648.491 746.825 646.834 746.825 644.79 746.825 642.745 748.483 641.088 750.527 641.088 752.571 641.088 754.229 642.745 754.229 644.79Z" fill="#505050"/><path d="M743.388 601.551C743.388 603.595 741.731 605.252 739.686 605.252 737.642 605.252 735.984 603.595 735.984 601.551 735.984 599.506 737.642 597.849 739.686 597.849 741.731 597.849 743.388 599.506 743.388 601.551Z" fill="#737373"/><path d="M794.092 659.385C794.092 661.429 792.435 663.086 790.39 663.086 788.346 663.086 786.689 661.429 786.689 659.385 786.689 657.34 788.346 655.683 790.39 655.683 792.435 655.683 794.092 657.34 794.092 659.385Z" fill="#D2D2D2"/><path d="M820.006 637.173C820.006 639.217 818.348 640.875 816.304 640.875 814.26 640.875 812.602 639.217 812.602 637.173 812.602 635.128 814.26 633.471 816.304 633.471 818.348 633.471 820.006 635.128 820.006 637.173Z" fill="#505050"/><path d="M812.602 655.682C812.602 657.727 810.944 659.384 808.9 659.384 806.855 659.384 805.198 657.727 805.198 655.682 805.198 653.638 806.855 651.98 808.9 651.98 810.944 651.98 812.602 653.638 812.602 655.682Z" fill="#D2D2D2"/><path d="M823.708 646.428C823.708 647.45 822.879 648.279 821.857 648.279 820.835 648.279 820.006 647.45 820.006 646.428 820.006 645.405 820.835 644.576 821.857 644.576 822.879 644.576 823.708 645.405 823.708 646.428Z" fill="#505050"/><path d="M803.347 637.173C803.347 638.195 802.519 639.024 801.496 639.024 800.474 639.024 799.645 638.195 799.645 637.173 799.645 636.15 800.474 635.322 801.496 635.322 802.519 635.322 803.347 636.15 803.347 637.173Z" fill="#505050"/><path d="M825.559 626.067C825.559 627.089 824.73 627.918 823.708 627.918 822.685 627.918 821.857 627.089 821.857 626.067 821.857 625.045 822.685 624.216 823.708 624.216 824.73 624.216 825.559 625.045 825.559 626.067Z" fill="#F2F2F2"/><path d="M792.242 672.341C792.242 673.363 791.413 674.192 790.39 674.192 789.368 674.192 788.539 673.363 788.539 672.341 788.539 671.319 789.368 670.49 790.39 670.49 791.413 670.49 792.242 671.319 792.242 672.341Z" fill="#505050"/><path d="M801.496 659.385C801.496 660.407 800.668 661.236 799.645 661.236 798.623 661.236 797.794 660.407 797.794 659.385 797.794 658.362 798.623 657.533 799.645 657.533 800.668 657.533 801.496 658.362 801.496 659.385Z" fill="#505050"/><path d="M801.496 670.49C801.496 671.512 800.668 672.341 799.645 672.341 798.623 672.341 797.794 671.512 797.794 670.49 797.794 669.468 798.623 668.639 799.645 668.639 800.668 668.639 801.496 669.468 801.496 670.49Z" fill="#505050"/><path d="M808.9 646.428C808.9 647.45 808.072 648.279 807.049 648.279 806.027 648.279 805.198 647.45 805.198 646.428 805.198 645.405 806.027 644.576 807.049 644.576 808.072 644.576 808.9 645.405 808.9 646.428Z" fill="#505050"/></g></g></g><g><g><g><path d="M217.839 225.356C217.562 215.798 206.96 208.722 197.89 209.862L188.633 177.043 182.21 177.076C182.21 177.076 185.408 214.681 185.682 215.305 186.831 217.913 190.306 224.537 195.981 224.537L210.85 225.844 217.846 225.844C217.846 225.681 217.844 225.518 217.839 225.356Z" fill="#737373" transform="matrix(1.69204 0 0 1 851 476)"/><path d="M146.664 215.043C147.088 220.695 151.805 225.149 157.565 225.149L172.587 225.845 179.012 225.845C179.012 225.681 179.01 225.519 179.005 225.356 178.725 215.705 169.925 208.9 160.798 210.215L151.316 210.215 146.664 215.043Z" fill="#737373" transform="matrix(1.69204 0 0 1 851 476)"/><path d="M167.49 122.809 164.759 125.388C153.825 134.939 145.254 145.849 138.453 157.788 137.904 158.753 137.367 159.724 136.84 160.702 133.302 167.273 130.272 174.14 127.656 181.248 135.569 180.043 139.629 172.091 139.984 163.827 142.062 164.361 144.724 164.549 146.969 164.549 161.35 164.549 173.621 151.556 173.621 137.174 173.621 132.366 172.497 124.17 167.49 122.809Z" fill="#505050" transform="matrix(1.69204 0 0 1 851 476)"/><path d="M140.948 207.418C140.948 198.57 134.846 188.954 125.291 188.073 122.901 195.418 120.907 202.995 119.207 210.747L111.988 210.747C102.666 210.747 93.4611 208.66 85.0503 204.639L73.0791 198.916C71.4902 198.156 70.0503 200.192 71.2957 201.437L75.0181 205.16C86.0928 216.235 100.998 222.718 116.592 223.391L132.364 223.436C137.416 221.065 140.948 212.572 140.948 207.418Z" fill="#505050" transform="matrix(1.69204 0 0 1 851 476)"/><path d="M188.394 63.7013C187.716 63.6197 187.025 63.5833 186.327 63.5833L184.014 63.5833C178.596 63.5833 173.761 66.9821 171.926 72.0796L171.926 72.0796C171.217 74.0487 170.109 75.7915 168.713 77.2307 166.054 79.9723 162.349 81.6121 158.363 81.6121L153.215 81.6121 152.834 81.6121C151.304 81.8231 148.113 82.7262 147.239 84.111 146.298 85.6051 145.704 87.2419 146.617 89.7345 148.578 92.8578 151.276 95.3971 154.421 97.1666 154.286 97.343 154.213 97.5279 154.213 97.7181 154.213 98.965 157.312 99.9759 161.136 99.9759L165.146 99.9759C169.819 99.9774 173.218 103.731 173.178 108.405L173.178 117.288C180.023 115.033 185.203 108.163 185.803 100.368 185.983 98.0195 185.887 93.1555 184.478 90.1924 186.908 89.3546 188.575 88.5379 190.619 87.0615 196.15 83.0685 195.141 76.1012 196.219 69.0593 193.527 66.734 189.013 63.7757 188.394 63.7013Z" fill="#737373" transform="matrix(1.69204 0 0 1 851 476)"/><path d="M189.235 132.037C189.235 137.233 192.305 146.427 198.273 144.866L204.487 117.47 204.487 116.859C196.038 114.998 189.235 124.421 189.235 132.037Z" fill="#737373" transform="matrix(1.69204 0 0 1 851 476)"/><path d="M183.355 180.364C183.355 182.996 185.803 185.843 189.837 185.823 190.169 185.821 190.881 185.462 191.209 185.126L191.266 175.755C190.94 175.467 190.369 175.087 190.018 175.086 186.064 175.066 183.355 177.732 183.355 180.364Z" fill="#505050" transform="matrix(1.69204 0 0 1 851 476)"/><path d="M210.856 224.383C210.178 217.077 204.617 211.579 197.894 210.325 195.751 209.801 193.485 209.657 191.209 209.982L191.209 185.157C191.209 185.157 191.209 185.136 191.21 185.106L191.209 185.126C190.894 185.174 190.57 185.204 190.238 185.204 187.191 185.204 184.72 183.07 184.72 180.438 184.721 177.806 187.191 175.672 190.239 175.672 190.59 175.672 190.933 175.704 191.266 175.758L198.274 144.896C194.377 142.049 191.843 137.447 191.843 132.251 191.843 124.636 197.282 118.293 204.487 116.889L204.487 107.954 202.381 105.465 202.842 81.7629C202.842 76.2885 200.073 72.3915 196.209 69.0547 195.133 76.0835 193.202 81.166 187.687 85.1596 185.635 86.6464 183.356 87.8412 180.914 88.6833 182.322 91.6464 183.113 94.9606 183.113 98.4599 183.113 106.279 179.176 113.176 173.178 117.284L173.178 117.467 167.49 122.84C169.744 126.674 171.05 131.132 171.071 135.896 171.135 150.168 159.508 161.944 145.236 162.054 142.919 162.072 140.671 161.787 138.53 161.236 138.174 169.501 133.966 176.762 127.656 181.279 126.828 183.531 126.04 185.806 125.292 188.104 132.036 192.81 136.452 200.621 136.452 209.469 136.452 214.623 134.948 219.424 132.364 223.467L144.289 223.39C146.171 224.923 148.57 225.844 151.187 225.844L172.576 225.844C172.576 225.681 172.574 225.518 172.569 225.356 172.326 216.966 165.644 210.73 157.906 210.106 157.902 210.106 157.902 210.101 157.905 210.101 167.121 208.292 174.133 200.346 174.512 190.693 175.927 191.967 176.87 193.682 177.04 195.794L178.719 216.497C179.489 221.783 184.034 225.844 189.533 225.844L210.922 225.844C210.922 225.372 210.902 224.886 210.856 224.383Z" fill="#D2D2D2" transform="matrix(1.69204 0 0 1 851 476)"/><path d="M153.633 210.385C153.635 210.222 153.767 210.093 153.93 210.09 165.061 209.935 174.245 200.962 174.258 189.797 174.265 184.312 172.13 179.188 168.241 175.338 168.124 175.223 168.12 175.036 168.234 174.917L168.234 174.917C168.351 174.796 168.546 174.793 168.666 174.911 172.669 178.875 174.867 184.15 174.86 189.798 174.846 201.29 165.395 210.528 153.938 210.692 153.769 210.695 153.63 210.555 153.633 210.385L153.633 210.385Z" fill="#E6E6E6" transform="matrix(1.69204 0 0 1 851 476)"/><path d="M157.289 214.021C157.118 214.014 156.976 214.153 156.976 214.324 156.976 214.485 157.105 214.615 157.266 214.622 163.265 214.88 168.072 219.802 168.148 225.845L168.75 225.845C168.675 219.477 163.609 214.291 157.289 214.021Z" fill="#737373" transform="matrix(1.69204 0 0 1 851 476)"/><path d="M157.296 217.255C157.123 217.242 156.976 217.383 156.976 217.557 156.976 217.715 157.1 217.843 157.258 217.855 161.424 218.165 164.726 221.618 164.8 225.844L165.402 225.844C165.328 221.299 161.776 217.585 157.296 217.255Z" fill="#737373" transform="matrix(1.69204 0 0 1 851 476)"/><path d="M195.051 214.021C194.88 214.014 194.738 214.153 194.738 214.324 194.738 214.485 194.866 214.615 195.028 214.622 201.026 214.88 205.834 219.802 205.909 225.845L206.512 225.845C206.436 219.477 201.37 214.291 195.051 214.021Z" fill="#737373" transform="matrix(1.69204 0 0 1 851 476)"/><path d="M195.058 217.255C194.885 217.242 194.738 217.383 194.738 217.557 194.738 217.715 194.862 217.843 195.02 217.855 199.186 218.165 202.488 221.618 202.562 225.844L203.164 225.844C203.09 221.299 199.538 217.585 195.058 217.255Z" fill="#737373" transform="matrix(1.69204 0 0 1 851 476)"/><path d="M188.128 127.404C190.066 127.404 191.638 125.585 191.638 123.34 191.638 121.096 190.067 119.276 188.128 119.276 186.189 119.276 184.618 121.096 184.618 123.34 184.618 125.585 186.189 127.404 188.128 127.404Z" fill="#505050" transform="matrix(1.69204 0 0 1 851 476)"/><path d="M174.928 141.785C173.912 142.792 173.787 144.312 174.648 145.182 175.509 146.051 177.03 145.94 178.046 144.934 179.062 143.927 179.188 142.406 178.327 141.537 177.466 140.667 175.944 140.778 174.928 141.785Z" fill="#505050" transform="matrix(1.69204 0 0 1 851 476)"/><path d="M187.758 143.55C188.724 142.798 188.795 141.274 187.916 140.146 187.037 139.017 185.542 138.712 184.576 139.463 183.611 140.215 183.54 141.738 184.419 142.867 185.297 143.995 186.792 144.301 187.758 143.55Z" fill="#505050" transform="matrix(1.69204 0 0 1 851 476)"/><path d="M187.28 150.536C185.909 151.907 186.084 154.305 187.671 155.892 189.258 157.479 191.656 157.655 193.027 156.284 194.398 154.913 194.222 152.515 192.635 150.928 191.048 149.341 188.65 149.166 187.28 150.536Z" fill="#505050" transform="matrix(1.69204 0 0 1 851 476)"/><path d="M173.047 111.421 204.536 111.421 204.536 117.47 173.047 117.47Z" fill="#FFC000" transform="matrix(1.69204 0 0 1 851 476)"/><path d="M160.494 91.2253C160.494 91.8792 159.964 92.4093 159.31 92.4093 158.656 92.4093 158.126 91.8792 158.126 91.2253 158.126 90.5714 158.656 90.0413 159.31 90.0413 159.964 90.0413 160.494 90.5714 160.494 91.2253Z" fill="#2F2F2F" transform="matrix(1.69204 0 0 1 851 476)"/><path d="M158.728 87.3858C158.728 88.0397 158.198 88.5698 157.544 88.5698 156.891 88.5698 156.36 88.0397 156.36 87.3858 156.36 86.7319 156.891 86.2018 157.544 86.2018 158.198 86.2018 158.728 86.7319 158.728 87.3858Z" fill="#2F2F2F" transform="matrix(1.69204 0 0 1 851 476)"/><path d="M155.718 91.2253C155.718 91.8792 155.188 92.4093 154.534 92.4093 153.88 92.4093 153.35 91.8792 153.35 91.2253 153.35 90.5714 153.88 90.0413 154.534 90.0413 155.188 90.0413 155.718 90.5714 155.718 91.2253Z" fill="#2F2F2F" transform="matrix(1.69204 0 0 1 851 476)"/><path d="M145.137 86.9523C144.024 84.4389 145.865 81.6121 148.613 81.6121L152.834 81.6121C152.947 82.0959 153.008 82.5992 153.008 83.1173 153.008 86.6976 150.167 89.6123 146.617 89.7345 146.063 88.8521 145.567 87.9237 145.137 86.9523L145.137 86.9523Z" fill="#2F2F2F" transform="matrix(1.69204 0 0 1 851 476)"/><path d="M178.898 80.3327C178.898 82.494 177.146 84.2462 174.985 84.2462 172.823 84.2462 171.071 82.494 171.071 80.3327 171.071 78.1713 172.823 76.4191 174.985 76.4191 177.146 76.4191 178.898 78.1713 178.898 80.3327Z" fill="#FFFFFF" transform="matrix(1.69204 0 0 1 851 476)"/><path d="M171.071 80.3327C171.071 80.5512 171.093 80.7644 171.128 80.973 171.657 81.3725 172.314 81.6121 173.028 81.6121 174.774 81.6121 176.189 80.1969 176.189 78.4512 176.189 77.6931 175.922 76.998 175.477 76.4534 175.315 76.4333 175.152 76.4191 174.985 76.4191 172.823 76.4191 171.071 78.1712 171.071 80.3327Z" fill="#2F2F2F" transform="matrix(1.69204 0 0 1 851 476)"/><path d="M187.126 76.5103C187.126 72.014 187.586 67.5796 188.363 63.6959 197.44 64.6487 204.487 72.48 204.487 81.8102L204.487 108.134C203.687 108.42 202.865 108.571 202.027 108.571 193.797 108.571 187.126 94.2173 187.126 76.5103Z" fill="#2F2F2F" transform="matrix(1.69204 0 0 1 851 476)"/><path d="M155.103 96.9797C157.144 97.1702 159.215 97.2085 161.263 97.1338 163.313 97.0525 165.355 96.8436 167.339 96.4342 168.329 96.2244 169.308 95.9757 170.251 95.6491 171.191 95.3197 172.1 94.9254 172.945 94.4476 174.637 93.4942 176.007 92.1257 176.724 90.469L176.726 90.4642C176.961 89.9202 177.593 89.6704 178.137 89.9055 178.681 90.1409 178.93 90.7722 178.695 91.3162 178.686 91.3378 178.675 91.3613 178.664 91.3821 178.126 92.4252 177.394 93.3554 176.547 94.1219 175.699 94.8871 174.751 95.5121 173.757 95.9865 171.769 96.946 169.663 97.4556 167.566 97.7503 165.466 98.0423 163.361 98.1179 161.269 98.0646 159.175 98.0041 157.099 97.831 155.029 97.5008 154.885 97.4779 154.787 97.343 154.81 97.1994 154.832 97.0619 154.957 96.9664 155.093 96.9791L155.103 96.9797Z" fill="#2F2F2F" transform="matrix(1.69204 0 0 1 851 476)"/></g></g></g><g><g><g><path d="M747.17 673.7C741.22 673.6 731.49 671.1 727.37 668 726.34 667.3 727.63 659.6 727.67 655.6 727.77 646.6 733.08 638.5 730.86 630.3 730.44 628.7 733.3 623.3 734.4 619.5 734.54 619.1 734.27 618.6 733.81 618.4 732.99 618.2 731.65 618.2 730.43 618.1 729.63 618 729.05 617.3 729.12 616.5 729.62 610.9 731.58 589.9 733.26 578.5 737.13 552.8 742.83 527.7 751.12 503.1 753.79 495.3 756.35 487.7 756.38 479.5 740.09 480.3 743.18 458.2 742.67 447.6 742.66 447.4 741.46 447.5 740.93 447.2L740.5 446.3C736.29 434.5 735.14 421.9 734.64 409.4 733.8 388.6 735.88 367.4 737.27 347 738.61 328.1 738.88 319.4 742.5 314.9 746.56 309.9 754.22 309.8 773.23 304.2 771.62 302.5 770.87 298.5 773.2 297.1 774.28 296.4 775.58 298.4 776.46 298.9 777.86 296 777.7 296.6 778.5 293.6L778.95 290.8C779.77 281.9 793.51 280.1 799.57 284.5 803.06 287.5 803.23 292.1 803.65 296.4 803.84 298.4 803.68 300.3 804.57 302L805.69 300.5C807.69 300.6 810.89 302.6 812.01 303.6 812.66 303.9 812.21 305 812.3 305.8 821.23 307.9 833.58 309.3 836.57 319.7 840.73 336.2 841.26 353.9 844.76 370.5 849.03 389.8 858.97 405.2 860.3 426.2 860.44 428.4 862.06 442.4 859.2 444L858.1 444.7C859.15 448.6 858.14 454.1 857.44 457.9 856.15 464.1 851.28 474.1 843.1 469.8 837.52 500.6 827.4 532.2 822.5 563.1 820.17 577.7 819.22 592.2 820.69 606.7 820.46 607.9 822.05 611.2 820.77 612.8 820.31 613.4 819.12 613.6 818.57 613.6 818.38 613.6 818.23 613.8 818.25 614 818.52 617.1 818.25 620.6 818.6 623.5 818.57 624.1 818.27 625.2 819.65 625 827.51 624.3 831.75 632.9 837.22 637.2 841.07 640.6 845.21 643.7 849.58 646.4 852.76 648.1 856.78 650.3 856.07 654.4 856.24 654.3 857.56 654.5 857.57 654.6 861.13 665.6 837.9 663.4 831.9 662.9 822.01 661.6 812.77 659 803.1 655 800.53 653.9 799.76 651.8 799.4 649.8 799.14 648.3 800.02 647 799.43 645.6 798.94 644.5 798.41 642.4 798.07 640.6 797.26 635.3 796.4 628.6 799.43 624.1 802.26 621.8 801.11 617.8 801.56 614.7 798.22 614.3 794.9 613.6 791.77 612.4 789.88 612.8 790.75 609.9 790.42 608.8 789.75 598.1 789.06 587.5 789.15 576.9 789.44 559.1 793.54 540.9 796.72 523.4 797.85 511.1 799.07 499 799.31 486.7 799.31 486.7 799.57 485 798.67 484.7 797.77 484.5 797.26 486.3 797.26 486.3 780.22 530.2 766.85 574.3 757.51 617.3 760.76 618.7 753.12 618.9 751.9 619.2 752.53 624.7 748.69 630.7 751.68 635.9 752.32 636.9 752.95 637.2 752.37 638.1 756.13 645.1 758.83 651.4 760.67 659.1L762.13 659.1C764.12 660.5 764.08 667.6 763.83 668.2 761.91 672.6 751.12 673.3 747.17 673.7ZM759.25 362C752.35 388.8 757.89 418.2 757.77 445.6L757.97 445.7 757.64 445.9C757.49 446.6 757.3 447.4 757.06 448.1 758.19 449.1 759.66 450.5 760.87 451.6 759.75 444.7 763.19 438.2 765.23 431.8 764.56 430.9 761.74 429.8 761.8 428.7 762.16 420.5 763.2 410.9 763.83 402.6 764.38 396.5 765.78 362 759.25 362Z" fill="#FFFFFF"/><path d="M747.84 673.4C741.19 673.5 734.75 672.2 728.71 669.2 726.01 667.6 727.36 663.4 727.31 660.7 727.53 654.8 728.1 649.3 729.82 643.6 730.23 641.2 731.22 637.4 731.57 637 731.86 636.6 734.9 634.6 736.34 633.9 742.11 631.1 746.59 631.5 751.11 635.9 751.21 636.3 754.74 642.1 755.91 645 757.73 649.6 760.46 659.5 760.97 659.2 763.31 658 764.4 662.5 764.09 666.2 764.77 672.4 752.29 673.3 747.84 673.4ZM840.59 663.3C827.5 663.2 816.56 660.5 804 655.3 800.96 654.1 799.79 652 799.4 649.6 799.29 648.9 799.67 646.2 799.46 645.6 797.15 639.6 796.08 628.5 800.1 623.3 800.1 623.3 800.49 622.6 801.05 622.8 801.62 622.9 801.55 623.6 801.55 623.6 802.8 629.8 809.77 635.5 814.25 628.5 817.21 624.5 820.25 624.4 823.45 625.7 827.02 627.2 830.16 630.1 832.97 633.1 836.08 636.4 839.78 639.5 843.44 642.3 847.59 646.2 856.49 647.2 856.42 654.1 856.72 654.4 857.75 654.4 857.9 656.3 858.03 657.8 857.01 659.8 855.85 660.7 850.46 663 845.62 663.2 840.59 663.3Z" fill="#FFFFFF"/><path d="M773.6 297C773.62 297 798.12 312.2 798.14 312.2 799.11 312.9 800.25 312.4 800.85 311.4L807.6 301.1C810.34 302.6 813.32 302.8 812.77 306 823.2 308 836 310.5 837.4 323.5 841.83 342.9 840.86 362.5 847.06 381.5 855.58 401.4 863.86 420.8 859.85 442.7 859.73 443.3 858.55 443.8 858.31 443.9 851.56 447.4 843.25 448.4 841 449.9L830.01 456.4 815.86 443.1 797.91 453.8 763.56 429.6C762.67 429.1 762.08 428.4 762.31 427.3 762.6 421.8 763.13 416 763.65 410.4 764.97 395.7 764.77 381.5 761.76 366.9 761.31 365.6 761.1 363.5 759.3 363.4 759.16 363.4 759.04 363.5 759 363.7 752.4 390.7 757.3 415.4 757.17 442.8 757.29 442.8 757.26 445.7 757.31 445.8 753.95 448.8 746.71 448.8 742.8 447.7 742.8 447.7 741.37 447.4 740.86 447L740.61 446.1C736.43 435.8 735.6 424 734.81 412.4 733.08 387.2 736.91 360.9 738.06 337.2 738.47 324.2 740.3 317.9 743.35 314 746.81 309.5 758.18 309.6 773.31 304.1 771.6 302.5 770.93 297.5 773.6 297Z" fill="#FFFFFF"/><path d="M861.83 426.7C860.88 411.5 856.29 399.5 850.49 385.8 848.73 381.9 847.52 377.9 846.5 373.6 842.49 357 842.51 339.1 838.67 322.5 837.76 309.9 823.43 307.5 813.34 305.8 813.84 303 812.33 302.3 809.59 300.7 808.45 300.2 806.11 298.8 804.9 299.8 804.46 298.7 804.26 297.5 804.06 296.4 803.86 295.9 803.98 294.7 803.38 294.5 803.26 297.6 802.04 301.8 804.55 304 802.97 306.4 801.66 309.6 799.46 311.2 799.1 311.3 798.67 311.3 798.29 311.1 798.27 311.1 797.97 310.9 797.84 310.9 791.71 307.4 785.62 303.6 777.92 298.7 778.94 296.3 780.13 291.8 778.92 289.4 778.13 292 777.21 294.9 775.98 297.4 771.58 294 770.04 301.1 772.11 303.8 763.5 307.1 754.1 307.9 745.51 311.2 734.42 317 737.63 344.6 735.46 356.3 733.64 378.2 731.79 400.8 734.48 422.5 735.67 430.5 736.73 438.6 739.72 446 740.1 446.6 740.3 448.2 741.3 447.5 741.67 447.7 742.05 447.9 742.45 448 741.89 458.1 740.1 481.9 755.29 480.4 754.25 494.1 748.52 507 744.54 520.1 739.61 538 735.85 556 732.81 574.4 730.44 589 728.67 603.8 727.48 618.6 727.34 620.5 730.35 620.9 730.77 619.2 731.8 619.5 732.86 619.7 733.94 619.9 733.06 623.1 731.2 625.9 729.94 628.9 729.49 630.8 730.32 632.7 730.48 634.6 730.52 637.1 729.84 639.6 729.19 642 726.95 649.7 726.64 657.6 726.35 665.5 726.02 669.2 727.89 669.9 731.03 671 736.34 673.1 742.08 674.2 747.78 674.2 752.96 674 766.7 672.9 764.68 665.2 764.51 663.1 764.66 657.9 761.39 658.3 759.51 651.1 756.82 645 753.21 638.2 753.71 637.3 753.22 636.4 752.73 635.6 749.85 631 752.9 625.3 752.52 620.2 754.3 619.7 761.58 620.1 758.7 616.8 768.38 572.4 781.79 529.1 798.24 486.7 798.24 510.4 793.46 534.5 789.62 557.7 787.06 574.9 788.27 591.7 789.35 608.8 789.54 610.5 789.02 613.9 791.68 613.5 794.5 614.6 797.44 615.3 800.44 615.6 800.2 618.6 801.56 622 798.67 624.2 795.59 630.5 796.32 639 798.62 645.6 799.29 647 798.44 648.5 798.76 650 799.16 652.5 800.86 656 803.88 655.8 815.93 660.3 827.45 664 840.13 664.1 846.34 663.6 861.6 664.1 858.02 654.2 857.81 653.9 857.39 653.7 857.01 653.8 856.91 649.5 853 647.1 849.64 645.2L849.64 645.2C845.36 642.6 841.66 639.7 837.97 636.4 832.95 632.5 828.05 624.1 820.73 624 820.75 623.6 820.61 623.2 820.35 622.9 820 620.3 819.62 617.4 818.95 614.8 819.51 614.7 820.08 614.6 820.62 614.4 824.44 615.7 821.06 606.3 821.47 604.1 820.52 592.7 821.13 581.1 822.65 569.6 826.86 537.1 838.75 504.5 844.79 472.1 853.29 475.4 857.07 464.4 858.47 458.1 859.25 454.1 860.98 449.4 858.69 445.6 863.94 446.3 861.9 431 861.83 426.7ZM762.22 664.5C762.38 663 762.07 661.3 761.77 660 763.56 662.2 762.59 665.3 762.98 668 754.78 675.6 737.56 672.9 728.37 668.1 727.41 666.8 727.73 663.6 727.62 661.7 728.08 671 767.28 670 762.22 664.5ZM752.94 642.3C753.59 643.8 754.5 645.7 755.87 646.6 757.22 652.4 759.87 658.2 759.73 664.3 759.27 664.4 758.98 664.5 758.74 664.8 749.35 666.8 739.21 667.1 730.56 662.5 727.45 654.6 730.12 644.5 732.62 636.7 735.89 634.9 739.42 633.1 743.24 633 749.89 633.2 747.99 637 751.4 639.1 751.89 640 752.49 641.2 752.94 642.3ZM748.4 632.5C743.33 629.5 737.04 632.3 732.72 635.7 732.87 634.7 732.63 633.7 732.4 632.7 730.96 628.3 735.7 624.6 734.49 620 740.05 621 745.89 620.9 751.52 620.3 750.24 624.3 748.54 628.3 748.4 632.5ZM807.83 302.7C808.96 303.2 810.05 303.7 810.95 304.6 810.56 311.6 811.57 318.4 811.04 325.4 808.5 321.6 805.21 316.9 801.75 313.5 801.81 313.1 801.33 312.7 800.92 312.7L800.92 312.7C800.84 312.7 800.79 312.7 800.84 312.7 803.99 310.1 805.62 306 807.83 302.7ZM773.52 297.6C781.22 302.9 789.4 308.1 797.5 312.9 793.88 317.5 790.46 322.2 786.7 326.7 785.45 324.4 784.33 321.8 783.26 319.4L783.26 319.4C781.43 315.3 779.57 311 776.93 307.3 775.71 304.9 772.54 303.6 772.36 300.8 772.43 299.8 772.35 297.8 773.52 297.6ZM765.79 464.8C764.56 468.3 767.05 472.9 763.66 475.5 761.43 474.1 759.51 477.2 757.36 477.3 757.32 477.3 757.07 477.3 756.99 477.3 755.75 477.3 754.54 476.9 753.28 477 752.56 477 751.85 477 751.13 477.2 743.75 470.1 744.58 457.7 742.93 448.2 747.38 449.3 752.14 449 756.46 447.5 756.5 448.2 757.46 448.7 758.01 448.2 761.15 453.6 764.15 456.5 769.21 460.8 769.63 461.2 769.72 461.6 769.61 461.7 768.38 462.9 764.61 462 765.79 464.8ZM763.99 432.2C762.28 437.7 759.29 443.1 759.64 449 759.2 448.7 758.75 448.2 758.26 447.8 758.37 447.4 758.47 447 758.56 446.6 759.11 446.4 759.31 445.5 758.82 445.1 758.9 418.5 753.62 390 759.87 363.9 759.92 363.7 761.01 365.1 761.16 365.9 764.53 381 763.35 397.1 761.88 412.7 761.38 417.9 761.02 423.2 760.73 428.4 760.43 430.4 762.73 431.1 763.99 432.2ZM798.65 452C787 444.5 776.44 437.1 764.11 428.1 764.53 410.5 770.3 377.3 760.21 362.9 760.18 362.9 760.21 362.7 760.17 362.7 760.93 358.8 762.76 354.9 763.59 351.2 748.23 380.1 755.06 414.4 756.05 445.8 751.88 447.5 747.24 447.9 742.8 447.2 742.83 447.1 742.57 447 742.57 447.2 742.2 447.2 741.87 447.1 741.57 447.1 732.77 416.4 735.16 386.3 737.63 354 742.77 307.1 733.52 316.5 773.38 304.8 790.44 333.5 779.77 338.2 799.36 314.6 803.98 355.8 812.78 399.2 814.28 440.9 808.7 444.1 804.02 448.5 798.65 452ZM817.38 624.6C814.24 625.5 813.47 629.5 810.6 630.8 807.01 632 803.52 628.4 802.66 625.1 803.48 625.3 802.3 616.2 802.44 615.8 807.45 616.1 812.25 615.7 817.39 615 817.24 618.1 816.54 621.6 817.38 624.6ZM856.8 655C856.86 655 856.93 655 857 655 858.25 660.1 854.02 661.4 849.66 662 840.24 663.7 830.46 662.7 821.23 660.3 814.9 657.9 799.54 656.7 800.18 648.5 803.24 652 809.98 652.3 814.15 653.9 824.34 656.7 840.47 662.6 850.5 659.4 853.08 659 855.93 657.6 856.8 655ZM825.91 628C833.15 634.3 839.5 641.7 847.92 646.6 850.15 648 853.04 649.3 854.49 651.6 856.4 654.8 852.85 657.3 849.84 657.2 848.61 657.4 847.55 657.5 847.23 658.2 832.44 658.5 816.65 652.9 802.53 648.3 797.95 644.7 797.81 634.2 798.7 629 798.95 627.2 799.42 623.7 800.82 623.7L800.82 623.7C800.93 623.7 801.04 623.7 801.14 623.8 801.15 624.3 801.56 625.4 801.62 625.5 802.85 628.9 805.69 632.6 809.61 632.7 813.82 632.9 814.82 627.9 818.2 626.5 820.81 625.5 823.71 626.5 825.91 628ZM854.21 461.5C852.24 466.1 850.41 470.3 845.38 468.7 846.46 462.1 847.24 455.8 847.99 448.6 851.4 447.9 854.69 446.7 857.74 445 859.15 448.9 855.4 457.2 854.21 461.5ZM858.06 442.8C854.96 444.5 851.66 445.9 848.17 446.7 848.37 444.4 848.44 442.6 848.26 440.4 848.79 439.5 849.25 438.5 849.64 437.6 854.6 427.9 849.89 416.1 847.11 406.3 840.45 385.7 838.24 361.9 836.42 339.2 836.42 339.2 836.37 339.2 836.37 339.2 834.34 361.3 837.99 380.4 843.6 403 846.59 413.7 851.56 425.2 847.54 436.2 845.89 434.9 844.67 437 845.32 438.6 840.23 443.8 834.76 448.5 829.89 453.9 825.65 450.5 822.05 445.8 817.31 442.7 815.13 401.5 809.36 360.9 801.24 320.1 801.83 318.6 800.55 316.5 801 314.9 804.5 319.4 807.81 326 811.76 329.6 815.21 328 812.84 311.7 813.33 306.3 820.74 309.5 830.9 310.1 834.61 318.3 838.9 333.7 839.35 350.1 842.01 365.8 844.1 381.8 852.15 394.9 856.03 410.6 858.81 421.2 859.98 432 858.06 442.8Z"/><path d="M830.56 337.1C831.35 335.5 828.56 336 827.74 336 823.35 336.2 819.07 336.1 814.67 336.4 813.83 340.7 815.88 346.5 815.23 351.4 813.99 356.8 818.15 360.2 822.31 362.8 823.87 363.7 825.13 365.3 826.8 365.8L826.8 365.8C837.67 360.3 832.85 346.4 830.56 337.1ZM826.34 364C825.26 363.1 824.08 362.3 822.93 361.5 820.67 359.6 817.01 358.1 816.6 354.9 816.65 348.9 816.59 342.4 814.81 336.7 819.37 337.3 825.36 337.4 829.94 337.4 830.31 346.2 835.72 357.9 826.34 364Z"/><path d="M820.05 436.2C817.89 436.1 818.09 432.9 820.17 432.9 822.33 432.9 822.13 436.2 820.05 436.2Z"/><path d="M819.1 419C817.28 418.8 817.74 415.5 819.56 416.4L819.57 416.3C820.59 416.9 820.14 418.8 819.1 419L819.1 419Z"/><path d="M817.08 398.3C816.87 398.3 816.6 398.2 816.53 397.7 814.98 396.3 816.31 393.2 818.24 394.9 818.94 395.5 818.7 398.3 817.08 398.3Z"/><path d="M813.63 379C811.89 378.9 811.87 376.3 813.64 376.3 815.29 376.3 815.31 379 813.63 379Z"/><path d="M810.81 361.2C809.16 361.2 809.02 358.5 810.77 358.4 812.42 358.3 812.38 361.1 810.81 361.2Z"/><path d="M808 343.3C807.54 343.3 807.15 342.9 807.15 342.5 805.84 340.3 809.95 339.6 809.67 341.8 809.67 341.8 809.65 341.9 809.64 342 809.51 342.8 808.74 343.3 808 343.3Z"/><path d="M804.64 326.8C803.23 326.7 803.03 324.3 804.61 324.4 806.09 324.4 806.17 326.8 804.64 326.8Z"/><path d="M793.3 232C801.9 232 810.7 238.6 813.8 242.8 816.4 246.4 817.8 262.4 817.8 273.2 817.8 275.5 819.1 279.7 818.7 281.9 817.4 289.8 811.6 296.5 800 296.5 788.5 296.5 780.3 291.9 771.7 279.7 769.6 279.5 765.5 276.5 765.5 271.5 765.5 266.4 769.5 264.6 769.5 264.6 769.5 264.6 768.1 244.8 771.7 239.6 775.3 234.4 784.8 232 793.3 232Z" fill="#FFFFFF"/><path d="M800.6 298.1C795.9 298.2 789.7 296.1 787.8 291.9 796.3 298.5 814 296.1 817 284.6 817.5 282.4 817.5 280 816.6 277.9 816.3 277.1 815.7 276.2 816.4 275.5 817.7 266.1 816.1 256.7 814.6 247.5 814.3 247.8 813.8 247.7 813.5 247.5 810.9 247.7 808.3 246.8 806.2 245.3 806 246.3 806 247.3 806 248.3 806 248.7 805.6 249.1 805.1 249.1 802.6 248.1 800.2 246.4 797.9 244.8 797.7 246.1 797.4 247.4 797.2 248.7 797.1 248.9 797 249 796.9 249.1 796.6 249.3 796.3 249.3 796 249.2 794.4 248.2 793 247 791.9 245.5 791.1 246.8 790.8 248.5 789.3 249 788.2 249.3 787.6 248.3 787.4 247.3 785.8 251.2 783.3 254.6 780.7 257.8 780.3 258.4 779.4 257.9 779.4 257.3 779.3 256.9 779.3 256.6 779.3 256.2 778.2 258.4 777.3 260.1 776.4 261.6 776.8 263 777.1 264.4 777.4 265.7L777.4 265.8C777.5 266.6 778 267.5 777.5 268.3 777 268.9 776 268.9 775.2 269 774.3 269.1 773.7 268.4 773.5 267.7L773.5 267.7C773.3 267.4 773.2 267.1 772.9 266.8 772.8 267 772.7 266.8 772.8 266.6 772.4 266.3 772 265.9 771.6 265.6 765.1 264.8 766.2 275.3 770.3 277.4 771.3 277.8 774.1 277.5 773.2 279.3 773.4 279.6 773.7 279.9 773.9 280.2 775.9 282.4 777.3 284.3 779.5 286.4 780.4 287.3 781.8 288 782.2 289.2 782.5 289.8 782.2 290.6 781.6 290.9 780.5 291.3 779.5 290.4 778.8 289.7 777.2 288.3 775.9 286.7 774.8 285 773.1 286.1 770.6 285.4 770.1 283.4 769.9 283.4 769.7 283.4 769.5 283.4 768.8 284 767.6 283.9 767.2 283 766.8 281.6 767.7 280.3 768.1 279.1 764.3 275.9 762.9 268.7 766.8 265 763.8 256.8 765.2 247 770 239.8 768.5 238.3 768.5 235.6 770.8 235.1 769.9 231.6 773.3 230.8 775.2 233.3 784.4 228.3 795.5 228.3 805.7 230.1 806.1 230.1 806.3 230.4 806.4 230.7 808.9 230.8 811.4 231 813.9 231.2 815.1 231.2 815.3 232.6 814.7 233.4 816.9 232.4 819 234.4 817.9 236.7 822 236.6 820.4 241.7 818.2 243.3 818.8 244.6 818.2 245.8 816.8 246.4 817 247.4 817.8 249.8 816.5 250.3 819.2 258.5 819.8 267.7 819 276.3 824.4 287.9 811.8 298.6 800.6 298.1ZM773.1 272.7C771.5 272.8 770.4 268.1 769.1 269.7 769.1 269.7 769 269.8 769 269.8 768.6 269.6 769 268.9 769.2 268.7 770.3 267.7 771.7 268.5 772.5 269.3 773.1 269.7 773.8 270.2 774.1 270.9 774.5 271.6 774 272.7 773.1 272.7Z"/><path d="M801.87 287.2C800.02 287.2 798.23 286.3 797.13 284.8 796.93 284.6 796.84 284.2 796.89 283.9 796.95 283.6 797.14 283.3 797.41 283.1 797.93 282.7 798.77 282.8 799.12 283.4 800.93 285.9 804 285.2 805.81 282.9 806.11 282.4 806.94 282.7 806.87 283.3 806.67 285.6 804.08 287.3 801.87 287.2Z"/><path d="M803.39 278.6C802.13 278.7 797.61 277.1 799.43 275.4 799.59 275.3 799.8 275.2 800.01 275.2 800.17 275.2 800.32 275.2 800.46 275.3 800.5 275.4 800.55 275.4 800.6 275.4L800.6 275.4C801.67 276.3 803.71 277.7 804.97 276.3 806.27 274.7 804.24 272.8 803.33 272.3 803.21 272.2 803.17 272 803.23 271.9 803.31 271.7 803.53 271.5 803.77 271.5 805.65 271.6 807.15 273.4 806.92 275.3 806.81 277.1 805.24 278.7 803.39 278.6Z"/><path d="M791.24 270.2C789.56 270 789.97 267.9 790.08 266.7 790.15 266.1 790.13 265.4 790.69 265 791.18 264.6 791.94 264.5 792.46 264.9 792.69 265.1 792.84 265.3 792.88 265.6 793.08 267 792.85 268.3 792.22 269.5 792.01 269.9 791.66 270.2 791.24 270.2Z"/><path d="M809.08 269.6C808.76 269.7 808.45 269.5 808.23 269.3 807.39 268.3 807.07 266.3 808.07 265.5 808.32 265 808.92 264.5 809.54 264.7 811.3 265.3 810.83 267.7 810.17 269 809.97 269.4 809.51 269.6 809.08 269.6L809.08 269.6Z"/><path d="M785.86 264C785.79 264 785.73 264 785.69 263.9 785.65 263.9 785.65 263.8 785.68 263.7 787.04 261.2 789.73 259.6 792.48 259.1 792.86 259.1 793.24 259 793.63 259 794.78 258.9 795.89 260.1 795.05 261 794.52 261.4 793.86 261.4 793.19 261.4L793.19 261.4C790.5 261.3 788.15 262.5 785.96 264 785.93 264 785.9 264 785.86 264Z"/><path d="M813.01 262.9 813.01 262.9C812.52 262.8 812.04 262.6 811.59 262.4 809.93 261.5 808.09 261 806.22 260.8 805.74 260.7 805.25 260.4 805.14 259.9 805.05 259.6 805.09 259.3 805.26 259 805.56 258.5 806.21 258.4 806.75 258.5 809.53 259.2 811.9 259.9 813.26 262.3 813.3 262.6 813.27 262.7 813.21 262.8 813.21 262.8 813.2 262.8 813.2 262.8 813.15 262.8 813.09 262.9 813.01 262.9L813.01 262.9Z"/></g></g></g><g><g><g><path d="M1045.7 651.211C1044.68 644.757 1025.31 641.97 1025.31 641.97L1005.07 629.942C1005.07 629.942 1000.23 624.955 997.149 616.74 994.069 608.525 990.509 587.604 990.509 587.604L993.628 585.642 977.449 465.074 969.791 410.267C979.801 401.994 987.543 386.465 990.726 377.712 992.328 373.306 991.922 371.902 990.488 367.438L980.132 335.099 973.904 316.133C970.224 306.372 960.604 298.306 950.396 296.157 949.624 295.995 949.181 295.933 949.181 295.933L943.167 295.035 943.167 287.132C939.546 278.915 919.792 275.31 917.804 274.967 917.718 274.952 917.639 275.016 917.634 275.104L917.192 283.053 915.15 293.001C881.118 298.722 877.413 310.54 869.982 319.524 864.053 326.693 857.321 341.793 853.787 351.34 852.859 353.847 848.824 366.813 849.915 369.255 857.16 385.477 893.074 406.467 893.074 406.467 886.565 424.662 876.756 485.41 876.756 485.41L870.863 536.674 867.946 575.082C867.842 576.285 868.341 577.371 869.547 577.432 877.416 577.825 889.528 581.739 889.528 581.739L891.291 588.429 895.028 602.146 902.414 627.451C903.743 632.376 903.382 637.481 901.852 642.324 901.514 643.392 901.284 644.492 901.192 645.608L901.192 645.608C901.665 649.011 903.215 652.173 905.614 654.633L911.184 659.317 918.879 667.13C923.996 670.852 932.906 672.692 939.233 672.684 949.793 672.672 952.762 665.374 950.469 663.498 939.279 654.336 929.799 645.946 924.759 641.405 922.232 639.128 920.453 636.143 919.65 632.838L918.132 626.584C917.514 624.038 917.152 621.437 917.052 618.819L916.09 595.388C945.73 595.577 954.705 591.901 954.705 591.901 959.546 594.541 968.135 593.418 968.135 593.418L979.437 621.993C981.015 626.611 981.407 633.33 981.116 638.201L980.436 641.753C977.564 652.149 990.447 654.527 990.447 654.527L1015.87 654.447C1017.23 654.443 1018.59 654.586 1019.92 654.883 1049.29 661.458 1045.7 651.211 1045.7 651.211ZM896.574 391.398 883.107 380.304 869.677 366.429C869.302 366.066 869.263 364.884 869.614 364.497L889.118 342.415C889.117 342.415 902.4 367.837 896.574 391.398ZM967.929 362.206 972.946 375.877 966.99 391.015C963.029 379.134 967.929 362.206 967.929 362.206Z" fill="#FFFFFF"/><path d="M985.169 354.272C981.02 341.055 977.56 327.05 972.121 314.311 968.785 305.927 959.788 300.399 951.238 297.359 948.995 296.574 946.685 296.106 944.452 295.654 943.173 295.544 942.482 293.162 942.557 292.436 942.664 287.384 942.675 290.9 936.696 290.102 930.074 289.626 923 288.438 918.097 283.939 917.782 283.589 917.151 283.774 917.089 284.247 916.866 285.642 916.597 287.024 916.289 288.354 915.94 289.839 915.644 290.993 915.113 292.195 914.828 292.915 914.355 293.416 914.127 293.47 906.863 295.191 899.217 297.214 892.301 299.803 875.386 307.97 864.74 327.213 857.02 344.64 856.907 347.523 861.864 350.928 863.85 352.776 866.699 355.02 869.943 357.347 873.448 358.499 878.362 353.624 883.81 348.278 888.346 342.714 889.639 341.128 889.735 343.204 889.811 343.403 893.049 350.97 896.219 359.863 897.271 366.714 898.015 371.054 898.341 374.948 898.269 378.618 898.291 379.348 899.279 379.3 899.78 379.497 921.376 383.583 943.628 386.992 964.752 381.214 965.275 381.095 965.226 380.504 965.23 380.077 965.434 374.356 966.041 368.205 967.062 362.767 967.094 362.594 968.818 361.272 968.972 361.81 969.289 362.467 969.334 364.424 970.441 363.79 974.499 363.764 977.844 363.516 981.319 361.277 983.303 359.664 983.735 357.938 984.556 355.938 984.691 355.355 985.244 354.874 985.169 354.272Z" fill="#FFFFFF"/><path d="M1046.6 650.087C1043.68 643.871 1035.65 643.153 1029.74 641.575 1020.87 639.54 1013.5 633.968 1005.75 629.505 996.238 618.034 994.427 602.754 991.26 588.711 995.714 586.249 995.179 585.754 994.673 581.034 986.04 524.322 979.772 467.27 970.869 410.596 980.769 400.583 991.096 386.746 992.575 372.388 994.345 371.736 990.464 364 990.197 362.223 986.921 352.021 983.997 341.709 980.699 331.513 977.915 323.56 975.729 315.102 970.981 308.05 964.544 300.354 953.867 294.345 943.749 294.024 943.473 292.67 943.467 291.26 943.695 289.897 943.844 289.013 944.253 287.979 944.032 287.094 943.181 285.795 942.353 287.995 942.292 288.823 937.723 289.63 933.019 288.866 928.531 287.883 924.589 287.081 921.006 285.216 917.985 282.603 918.285 279.992 918.637 277.344 918.29 274.724 918.137 273.691 916.584 274.136 916.725 275.155 916.999 280.836 915.872 287.062 913.799 292.38 889.842 295.649 878.569 302.66 865.715 323.217 857.711 336.458 850.692 350.973 848.416 366.397 848.466 367.377 847.929 369.035 849.15 369.388 856.918 386.622 877.019 396.317 891.775 406.957 881.682 439.008 876.712 472.478 872.429 505.733 870.157 529.324 866.151 553.359 867.313 576.977 866.681 578.459 871.506 578.634 872.475 578.882 877.385 579.72 882.465 580.441 887.073 582.393 888.233 583.024 888.726 583.932 889.109 585.1 891.957 603.107 900.866 619.765 902.317 638.061 899.158 642.197 898.612 648.646 902.069 652.766 905.211 656.188 908.69 659.309 911.93 662.641 919.771 672.082 941.996 680.07 951.202 669.22 955.913 663.615 946.716 658.313 942.951 655.185 935.226 650.158 928.992 643.365 922.356 637.065 916.875 624.305 918.004 610.13 917.04 596.608 929.641 597.175 942.818 597.234 954.93 593.375 958.74 595.246 963.225 594.952 967.343 594.744 972.703 607.617 977.246 620.927 980.349 634.46 979.729 640.633 976.355 649.141 983.308 652.918 985.398 654.048 987.763 655.775 990.237 655.345 993.454 656.405 997.142 655.845 1000.46 655.691 1005.23 655.47 1009.99 655.406 1014.76 655.674 1024.14 655.604 1033.37 659.621 1042.68 657.908 1045.98 657.191 1047.71 653.138 1046.6 650.087ZM966.302 385.227C966.416 378.262 966.776 371.274 967.98 364.401 969.094 368.289 970.653 372.038 971.999 375.837 970.049 380.097 969.332 384.819 967.093 388.961 966.805 387.735 966.728 386.406 966.302 385.227ZM896.592 383.949C896.344 385.763 896.02 387.555 895.621 389.345 886.374 382.298 877.969 374.211 869.984 365.779 875.329 357.697 883.174 351.686 889.42 344.361 894.218 356.929 898.58 370.336 896.592 383.949ZM989.551 369.876C989.947 370.732 990.061 371.867 990.813 372.483 988.012 386.108 980.058 398.113 970.43 407.933 969.507 402.339 968.532 396.754 967.502 391.181 970.293 386.774 971.253 381.541 973.216 376.755 974.689 376.526 973.993 374.758 973.61 373.877 972.524 370.617 971.401 367.37 970.369 364.092 976.354 365.092 983.7 363.583 985.401 356.88 986.722 361.231 988.076 365.575 989.551 369.876ZM972.011 375.816C972.011 375.807 972.012 375.796 972.013 375.787 972.015 375.792 972.017 375.798 972.019 375.803 972.017 375.807 972.014 375.811 972.011 375.816ZM866.188 327.784C872.65 317.141 880.497 306.274 891.924 300.636 899.439 297.678 907.357 295.689 915.209 293.848 915.228 293.842 915.295 293.845 915.313 293.849 916.139 294.05 916.552 292.719 915.704 292.44 916.786 289.864 917.24 287.08 917.728 284.34 922.692 288.915 929.673 290.123 936.172 290.652 937.994 290.767 940.33 291.028 942.091 290.21 941.903 291.613 942.005 293.054 942.367 294.417 941.966 294.878 942.13 295.787 942.821 295.906 943.069 296.612 943.355 297.307 943.652 297.998 943.935 298.657 945.078 298.184 944.821 297.505 944.66 297.08 944.503 296.652 944.356 296.221 953.141 297.807 961.796 301.848 967.917 308.461 969.522 310.272 970.647 312.365 971.644 314.554 977.081 327.299 980.503 341.187 984.665 354.44 983.539 356.583 983.088 359.283 981.024 360.808 977.883 363.07 973.746 363.017 970.128 363.335 969.687 362.259 969.59 360.904 968.832 359.997 971.223 349.473 973.748 337.657 967.725 327.891 967.325 327.235 966.301 327.828 966.692 328.495 972.574 338.878 968.752 351.232 966.642 362.142 965.475 368.24 964.886 374.44 964.683 380.642 943.246 386.441 920.328 382.983 898.914 378.631 899.155 366.293 895.216 354.408 890.417 343.195 892.586 340.631 894.59 337.906 896.28 334.998 896.891 334.175 900.494 327.196 897.532 328.449 895.202 331.253 893.691 334.636 891.542 337.579 886.484 345.166 879.55 351.177 873.492 357.913 870.121 356.628 867.089 354.579 864.276 352.32 862.044 350.241 858.366 347.916 857.619 344.866 860.073 338.982 862.943 333.265 866.188 327.784ZM886.99 401.179C873.423 392.087 858.979 383.126 850.28 368.86 851.883 361.372 853.902 353.962 856.805 346.861 858.615 350.242 868.877 359.361 872.758 358.76 872.024 359.894 865.955 366.132 868.742 366.663 877.291 377.04 887.201 386.273 898.182 394.034 899.66 394.832 909.093 402.597 909.432 399.434 914.161 399.118 915.429 396.216 920.501 398.921 922.942 400.12 927.882 399.267 928.693 402.476 927.349 404.42 923.638 403.689 921.551 403.688 920.427 403.409 918.944 404.203 920.599 404.916 919.991 413.08 911.044 417.078 903.855 417.859 904.678 416.225 900.275 411.388 899.156 410.001 898.769 408.715 897.191 408.161 896.19 407.385 893.123 405.317 890.057 403.248 886.99 401.179ZM917.309 631.304C918.599 638.799 923.385 642.058 928.493 647.02 931.675 650.04 935.002 652.914 938.608 655.419 932.966 656.584 927.44 658.834 922.958 662.496 922.906 662.494 922.828 662.499 922.818 662.508 915.699 659.967 910.796 652.518 908.865 645.442 908.198 642.797 907.291 640.015 905.119 638.212 904.224 621.996 897.24 606.885 893.276 591.274 899.949 595.19 908.052 595.602 915.576 596.495 914.159 608.006 914.8 619.969 917.309 631.304ZM975.521 608.224C973.632 603.61 971.618 599.051 969.504 594.537 976.427 593.697 983.38 592.247 989.789 589.437 990.714 604.198 994.729 619.001 1003.09 631.327 1010.33 635.568 1017.59 640.65 1025.67 643.449 1028.4 647.401 1016.79 649.109 1014.41 648.597 1010.45 648.38 1006.52 647.515 1002.59 646.937 998.975 646.404 995.227 645.772 992.087 643.778 988.37 641.341 985.561 637.799 982.338 634.787 982.76 634.532 982.911 633.715 982.914 633.273 982.913 633.277 982.912 633.282 982.91 633.286 981.971 624.621 978.666 616.31 975.521 608.224Z"/><path d="M939.99 231.23C922.73 230.6 906.23 242.2 900.68 258.6 900.45 259.33 900.76 260.04 901.31 260.47 902.15 261.14 902.56 262.21 902.51 263.29 902.24 269.38 905.21 276.29 911.71 277.11 913.22 277.3 914.74 277.19 916.25 277.33 917.6 277.45 924.95 281.58 927.7 282.55 929.29 283.1 931.55 283.48 934.11 283.7 939.87 284.19 943.03 284.35 947.64 283.49 948.98 283.25 952.1 281.16 953.64 278.43 958.91 269.09 956.54 254.53 956.8 251.98 957.12 248.7 958.61 243.35 957.44 240.23 954.34 232.27 947.69 231.4 939.99 231.23Z" fill="#FFFFFF"/><path d="M951.86 290.58C950.02 290.59 947.45 290.06 946.09 289.08 944.44 288.49 942.88 286.86 943.03 285.01 939.68 285.15 935.43 285.21 932.14 283.75 930.82 283.16 929.57 282.46 928.78 281.18 928.73 281.11 928.8 281.01 928.88 281.04 932.32 282.3 935.94 282.85 939.73 282.49 943.29 282.45 946.67 281.86 949.37 279.5 955.08 273.66 953.79 268.11 954 260.59 953.97 254.83 954.29 248.86 955.48 243.26 955 242.41 954.14 241.91 953.62 241.1 953.37 240.8 953.14 240.48 952.94 240.13 952.74 239.88 952.54 239.65 952.29 239.41 951.64 240.61 950.65 241.93 949.28 242.28 948.94 242.29 948.65 242.06 948.55 241.74 948.2 240.54 947.66 239.4 946.94 238.38 945.73 240.39 943.81 241.95 941.59 242.7 941.31 242.8 940.99 242.69 940.82 242.45 940.67 242.26 940.61 242.01 940.67 241.78 941.07 240.19 941.15 238.53 940.91 236.9 940.06 237.51 939.18 238.09 938.3 238.6 937.08 239.43 931.94 243.55 930.82 242.27 930.52 241.53 931.27 240.58 931.27 239.77 931.27 239.76 931.27 239.76 931.27 239.75 926.81 245.58 918.46 251.48 911.79 254.41 912.4 255.04 914.33 257.27 912.55 257.5 912.22 257.51 911.92 257.31 911.8 257 911.26 255.59 909.9 254.52 908.33 254.27 905.71 254.67 904.14 257.5 905.58 259.95 906.04 260.82 906.56 261.69 906.82 262.66 907.28 263.62 906.41 267.21 908.09 266.82 909 267.46 910.22 266.96 911.14 266.57 911.35 267.17 911.07 267.86 910.64 268.29 912.78 271.31 914.87 274.15 917.54 276.54 918.3 277.23 919.4 277.89 919.84 278.82 921.78 279.55 921.16 283.37 921.09 285.06 920.89 286.18 919.99 286.99 919.07 287.57 918.83 287.73 918.52 287.73 918.27 287.59 917.21 288.65 915.52 289 914.21 289.14 912.62 289.65 910.92 289.76 909.28 289.46 900.71 290.26 891.26 289.97 883.8 285.21 878.97 281.66 878.91 274.47 880.6 269.23 882.99 262.52 886.51 252.33 893.75 249.45L893.75 249.45C893.87 249.41 893.99 249.37 894.1 249.33 894.62 242.72 897.14 236.38 900.96 230.99 903.65 224.85 909.06 220.32 915.54 218.66 921.4 216.94 927.7 216.06 933.74 217.09 944.42 216.05 961.99 227.69 960.77 239.54 961.05 241.23 961.25 242.96 961.03 244.66L961.05 244.71C960.96 245.34 960.85 245.98 960.72 246.63L960.68 246.67C960.61 247.92 959.85 249.25 959.91 250.42 959.75 250.97 959.59 251.5 959.42 252 960.28 256.35 961.09 260.71 962.35 264.96L962.35 264.96C965.99 275.65 966.36 289.75 951.86 290.58ZM910.8 261.78C910.4 261.79 910.04 261.49 909.97 261.1 909.64 259.9 908.55 259.06 907.3 259.04 907.17 259.02 906.72 259.17 906.88 258.92 908.52 257.81 910.9 258.59 911.71 260.36 912.08 261.01 911.52 261.8 910.8 261.78Z"/><path d="M939.738 276.66C938.03 276.68 936.373 275.88 935.261 274.6 934.65 273.97 933.48 271.6 934.665 271.41 934.83 271.41 934.993 271.5 935.062 271.66 936.894 274.52 940.376 275.69 942.786 272.89 942.979 272.65 943.27 272.5 943.58 272.5L943.587 272.5C943.906 272.51 944.21 272.64 944.431 272.87 944.664 273.1 944.805 273.4 944.825 273.73 944.836 274.04 944.718 274.35 944.498 274.57 943.285 275.88 941.524 276.67 939.738 276.66Z"/><path d="M941.525 268.32C940.27 268.37 935.748 266.82 937.568 265.13 937.727 264.99 937.932 264.91 938.144 264.91 938.303 264.91 938.458 264.95 938.59 265.04 939.7 265.94 941.772 267.5 943.107 266.04 944.409 264.46 942.376 262.49 941.467 262.04 941.342 261.94 941.301 261.76 941.365 261.61 941.441 261.37 941.663 261.22 941.911 261.22 943.784 261.36 945.286 263.11 945.051 265 944.945 266.8 943.371 268.4 941.525 268.32Z"/><path d="M927.166 262.56C927.096 262.56 927.025 262.55 926.958 262.53 926.83 262.49 926.724 262.4 926.673 262.28 926.31 261.32 926.568 260.32 926.848 259.65 928.348 255.98 931.974 256.01 933.744 259.18 933.852 259.33 933.963 259.5 934.076 259.65 934.275 259.91 934.336 260.24 934.237 260.55 934.125 260.85 933.887 261.1 933.583 261.22 933.001 261.49 932.262 261.19 932.052 260.58 931.759 259.88 931.329 259.3 930.87 259.01 930.496 258.75 930.012 258.72 929.603 258.91 929.218 259.09 928.57 259.66 928.129 260.38 927.79 260.89 927.621 261.49 927.645 262.1 927.673 262.33 927.469 262.53 927.245 262.55 927.22 262.55 927.193 262.56 927.166 262.56Z"/><path d="M948.91 260.44C948.491 260.43 948.07 260.14 947.983 259.72 947.85 258.99 947.178 258.3 946.397 258.44 945.857 258.56 945.391 258.91 945.128 259.4L945.121 259.41C945.006 259.62 944.86 259.81 944.686 259.98 944.58 260.07 944.429 260.1 944.296 260.06 943.868 259.63 943.82 259.32 943.831 259.05 943.857 258.71 943.974 258.39 944.171 258.11 945.244 256.61 947.04 256.18 948.469 257.21 949.321 257.8 950.501 259.5 949.36 260.31 949.224 260.39 949.069 260.43 948.91 260.44Z"/><path d="M924.46 256.44C924.449 256.44 924.438 256.44 924.428 256.44 924.369 256.43 924.314 256.4 924.27 256.36 924.046 256.17 923.937 255.85 923.945 255.41 924.191 252.8 926.577 250.45 929.079 249.54 930.051 249.15 931.779 248.72 932.707 249.66 932.954 249.9 933.09 250.23 933.084 250.58 933.089 250.93 932.952 251.27 932.704 251.53 932.035 252.2 931.021 252.09 930.16 252.28 928.109 252.71 926.34 253.95 925.096 255.63 924.983 255.81 924.891 256.04 924.776 256.2 924.69 256.35 924.645 256.39 924.61 256.4 924.564 256.42 924.512 256.44 924.46 256.44L924.46 256.44Z"/><path d="M950.136 256.11C950.007 256.11 949.884 256.02 949.857 255.89 949.493 254.29 948.77 253.3 947.511 252.66 946.813 252.33 946.079 252.08 945.325 251.92 944.105 251.75 942.219 251.5 942.434 249.81 942.867 247.96 945.336 248.76 946.46 249.32L946.462 249.32C946.519 249.34 946.576 249.36 946.631 249.39 947.631 249.79 948.536 250.39 949.286 251.16 950.355 252.2 951.532 255.09 950.136 256.11L950.136 256.11Z"/></g></g></g><g><g><g><path d="M47.0245 23.6788 23.5245 23.6788C20.2799 23.6788 17.6495 26.3092 17.6495 29.5538L17.6495 41.3038C17.6495 44.5484 20.2799 47.1788 23.5245 47.1788L23.5245 52.892 29.2036 47.1788 41.1005 47.1788 47.0245 47.1788C50.269 47.1788 52.8995 44.5484 52.8995 41.3038L52.8995 41.108 52.8995 29.5538C52.8995 26.3092 50.269 23.6788 47.0245 23.6788Z" fill="#737373" transform="matrix(1.39362 0 0 1 794 197)"/><path d="M70.4755 41.108 52.8995 41.108 46.9755 41.108C43.731 41.108 41.1005 43.7384 41.1005 46.983L41.1005 47.1788 41.1005 58.733C41.1005 61.9775 43.731 64.608 46.9755 64.608L64.7964 64.608 70.4755 70.3212 70.4755 64.608C73.7201 64.608 76.3505 61.9775 76.3505 58.733L76.3505 46.983C76.3505 43.7384 73.7201 41.108 70.4755 41.108Z" fill="#FFC000" transform="matrix(1.39362 0 0 1 794 197)"/><path d="M52.8995 41.2891 52.8995 41.0948C52.8995 41.0937 52.8987 41.0929 52.8975 41.0929L46.9608 41.0929C43.708 41.0929 41.0711 43.7298 41.0711 46.9826L41.0711 47.1768C41.0711 47.178 41.0719 47.1788 41.0731 47.1788L47.0098 47.1788C50.2626 47.1788 52.8995 44.5419 52.8995 41.2891Z" fill="#505050" transform="matrix(1.39362 0 0 1 794 197)"/><path d="M52.9484 53.6413C52.9484 54.1821 52.51 54.6205 51.9693 54.6205 51.4285 54.6205 50.9901 54.1821 50.9901 53.6413 50.9901 53.1005 51.4285 52.6621 51.9693 52.6621 52.51 52.6621 52.9484 53.1005 52.9484 53.6413Z" fill="#FFFFFF" transform="matrix(1.39362 0 0 1 794 197)"/><path d="M57.4526 53.6413C57.4526 54.1821 57.0142 54.6205 56.4734 54.6205 55.9327 54.6205 55.4943 54.1821 55.4943 53.6413 55.4943 53.1005 55.9327 52.6621 56.4734 52.6621 57.0142 52.6621 57.4526 53.1005 57.4526 53.6413Z" fill="#FFFFFF" transform="matrix(1.39362 0 0 1 794 197)"/><path d="M61.9568 53.6413C61.9568 54.1821 61.5184 54.6205 60.9776 54.6205 60.4368 54.6205 59.9984 54.1821 59.9984 53.6413 59.9984 53.1005 60.4368 52.6621 60.9776 52.6621 61.5184 52.6621 61.9568 53.1005 61.9568 53.6413Z" fill="#FFFFFF" transform="matrix(1.39362 0 0 1 794 197)"/><path d="M66.4609 53.6413C66.4609 54.1821 66.0226 54.6205 65.4818 54.6205 64.941 54.6205 64.5026 54.1821 64.5026 53.6413 64.5026 53.1005 64.941 52.6621 65.4818 52.6621 66.0226 52.6621 66.4609 53.1005 66.4609 53.6413Z" fill="#FFFFFF" transform="matrix(1.39362 0 0 1 794 197)"/><path d="M29.4974 36.2121C29.4974 36.7529 29.059 37.1913 28.5182 37.1913 27.9774 37.1913 27.5391 36.7529 27.5391 36.2121 27.5391 35.6713 27.9774 35.233 28.5182 35.233 29.059 35.233 29.4974 35.6713 29.4974 36.2121Z" fill="#FFFFFF" transform="matrix(1.39362 0 0 1 794 197)"/><path d="M34.0016 36.2121C34.0016 36.7529 33.5632 37.1913 33.0224 37.1913 32.4816 37.1913 32.0432 36.7529 32.0432 36.2121 32.0432 35.6713 32.4816 35.233 33.0224 35.233 33.5632 35.233 34.0016 35.6713 34.0016 36.2121Z" fill="#FFFFFF" transform="matrix(1.39362 0 0 1 794 197)"/><path d="M38.5057 36.2121C38.5057 36.7529 38.0673 37.1913 37.5266 37.1913 36.9858 37.1913 36.5474 36.7529 36.5474 36.2121 36.5474 35.6713 36.9858 35.233 37.5266 35.233 38.0673 35.233 38.5057 35.6713 38.5057 36.2121Z" fill="#FFFFFF" transform="matrix(1.39362 0 0 1 794 197)"/><path d="M43.0099 36.2121C43.0099 36.7529 42.5715 37.1913 42.0307 37.1913 41.49 37.1913 41.0516 36.7529 41.0516 36.2121 41.0516 35.6713 41.49 35.233 42.0307 35.233 42.5715 35.233 43.0099 35.6713 43.0099 36.2121Z" fill="#FFFFFF" transform="matrix(1.39362 0 0 1 794 197)"/></g></g></g></g></svg>